<svg width="2183" height="1669" viewBox="0 0 2183 1669" fill="none" xmlns="http://www.w3.org/2000/svg">
<path d="M812.295 140.956C809.67 138.491 806.789 136.194 803.668 134.332C787.43 144.88 773.464 159.005 761.315 173.911C744.063 195.077 729.895 218.741 717.773 243.159C712.164 254.458 707 265.974 702.32 277.688C697.241 290.411 692.492 303.233 688.979 316.49C681.876 343.29 679.052 371.753 684.33 399.147C688.682 421.737 698.727 442.433 713.429 459.751C714.663 460.368 715.974 460.818 717.373 460.959C729.232 462.166 729.156 443.908 729.697 436.22C730.326 427.295 732.067 418.366 733.82 409.6C735.832 399.528 738.13 389.502 740.424 379.487C749.136 341.48 761.395 304.3 777.198 268.644C785.056 250.915 793.962 233.67 802.616 216.322C811.015 199.488 819.795 182.787 830.8 167.481C831.079 167.096 831.372 166.727 831.65 166.346C826.307 157.085 820.05 148.232 812.295 140.956Z" fill="white"/>
<path d="M779.111 209.842C771.284 221.125 764.043 232.816 757.508 244.892C754.326 250.77 751.098 256.625 749.01 262.979C747.238 268.373 745.283 273.836 741.609 278.259C740.634 279.432 739.041 278.339 738.904 277.139C736.743 257.947 732.669 239.014 730.181 219.876C725.817 227.525 721.671 235.296 717.769 243.163C712.16 254.461 706.996 265.977 702.317 277.691C697.237 290.415 692.489 303.237 688.975 316.494C681.872 343.293 679.048 371.757 684.326 399.151C688.678 421.741 698.723 442.437 713.425 459.755C714.663 460.372 715.97 460.821 717.369 460.962C729.228 462.17 729.152 443.911 729.693 436.224C730.322 427.299 732.063 418.369 733.816 409.604C735.828 399.532 738.126 389.505 740.42 379.49C749.132 341.484 761.391 304.304 777.194 268.648C785.052 250.919 793.958 233.673 802.612 216.325C811.011 199.492 819.791 182.791 830.796 167.485C831.075 167.1 831.368 166.731 831.646 166.35C829.581 162.761 827.325 159.276 824.951 155.881C808.214 172.548 792.563 190.459 779.111 209.842Z" fill="white"/>
<path d="M766.924 504.523C734.693 483.51 730.486 388.244 730.486 392.45C730.486 396.652 730.486 111.563 730.486 111.563H453.763L455.524 115.296C449.438 114.344 443.2 113.864 437.083 113.521C429.881 113.121 422.587 113.083 415.408 113.905C412.142 114.283 408.952 114.953 405.824 115.837L407.839 111.559H131.121C131.121 111.559 131.121 396.648 131.121 392.446C131.121 388.244 126.917 483.507 94.6822 504.519C62.4507 525.532 -19.9152 552.152 28.2758 563.36C61.4561 571.077 126.624 560.861 170.052 547.802C169.03 548.811 167.994 549.809 166.911 550.743C162.46 554.59 157.369 557.642 152.511 560.929C147.16 564.548 141.924 568.479 138.152 573.797C137.713 574.418 137.721 575.336 138.357 575.813C149.008 583.748 163.84 584.395 176.595 583.923C192.223 583.344 207.721 580.548 222.998 577.34C235.559 574.7 248.054 571.916 260.694 569.668C276.033 566.94 291.428 564.167 306.321 559.508C306.763 559.371 307.205 559.219 307.647 559.074C300.746 566.563 293.326 573.557 285.727 580.342C284.927 581.054 284.71 582.727 286.006 583.058C305.6 588.075 326.72 582.09 344.55 573.82C348.654 571.916 352.694 569.817 356.665 567.577C356.73 567.683 356.779 567.79 356.844 567.897C361.497 575.397 368.417 581.256 375.97 585.694C392.284 595.275 411.582 599.16 430.132 601.576C438.348 602.646 446.622 603.339 454.864 604.177C465.477 605.256 476.189 606.143 486.867 605.621C495.788 605.183 506.314 604.056 513.264 597.82C518.782 592.867 518.279 585.226 516.5 578.673C515.943 576.616 515.273 574.594 514.545 572.59C515.387 572.997 516.214 573.432 517.06 573.824C534.89 582.094 556.01 588.079 575.605 583.062C576.9 582.73 576.679 581.058 575.883 580.346C568.284 573.561 560.865 566.571 553.963 559.078C554.405 559.219 554.847 559.371 555.289 559.512C570.182 564.171 585.577 566.948 600.916 569.672C613.556 571.919 626.048 574.704 638.612 577.344C653.885 580.552 669.388 583.348 685.016 583.927C697.77 584.399 712.602 583.751 723.253 575.816C723.889 575.344 723.897 574.422 723.459 573.801C719.686 568.483 714.45 564.552 709.1 560.933C704.237 557.645 699.15 554.594 694.699 550.747C693.616 549.813 692.58 548.815 691.559 547.806C734.986 560.864 800.154 571.081 833.334 563.363C881.522 552.152 799.156 525.536 766.924 504.523Z" fill="white"/>
<path d="M45.5617 540.514C53.7777 537.459 61.8946 534.13 69.9049 530.56C77.092 527.361 84.3705 524.176 91.0775 520.031C103.516 512.348 113.668 501.67 120.782 488.908C129.101 473.991 134.101 457.126 137.325 440.433C140.732 422.781 142.081 404.815 143.159 386.892C144.295 368.009 144.977 349.114 145.289 330.197C145.926 291.177 145.152 252.149 143.918 213.148C142.843 179.279 141.444 145.425 140.309 111.559H131.129C131.129 111.559 131.129 396.648 131.129 392.446C131.129 388.244 126.925 483.507 94.6901 504.519C71.7112 519.498 23.2725 537.326 14.7974 550.388C25.2122 547.642 35.4746 544.267 45.5617 540.514Z" fill="white"/>
<path d="M222.088 340.425C221.474 345.408 220.903 350.398 220.419 355.396C217.515 385.376 216.452 415.676 217.347 445.782C217.785 460.482 218.948 475.149 219.447 489.845C219.797 500.142 219.028 510.809 220.594 521.067C223.429 507.86 225.327 494.459 226.542 481.008C229.134 452.387 229.054 423.584 228.231 394.884C227.709 376.576 224.683 358.523 222.088 340.425Z" fill="white"/>
<path d="M316.297 262.88C314.114 288.663 313.432 314.487 312.616 340.337C311.942 361.716 311.393 384.073 317.269 404.865C320.28 394.404 321.815 383.544 322.566 372.698C324.174 349.484 321.739 326.494 319.838 303.386C318.725 289.885 317.635 276.37 316.297 262.88Z" fill="white"/>
<path d="M538.713 298.117C538.476 316.25 539.147 334.375 539.711 352.512C540.283 370.839 540.969 389.623 545.332 407.535C545.286 399.692 545.363 391.848 545.42 384.008C545.576 363.262 545.366 342.436 542.466 321.862C541.35 313.93 540.001 306.026 538.713 298.117Z" fill="white"/>
<path d="M410.842 489.495C410.252 461.286 407.035 433.337 403.518 405.368C401.994 393.235 400.389 381.113 398.797 368.992C398.316 380.473 398.046 391.962 398.309 403.448C398.64 417.996 399.231 432.552 399.726 447.096C400.637 473.846 401.99 501.354 409.829 527.128C411.231 521.871 411.273 516.252 411.162 510.854C411.021 503.735 410.991 496.615 410.842 489.495Z" fill="white"/>
<path d="M166.911 550.747C162.46 554.594 157.369 557.645 152.51 560.933C147.888 564.06 143.41 567.477 139.832 571.763C150.933 564.689 162.194 557.836 171.945 548.933C179.159 542.351 185.653 534.457 188.991 525.17C192.512 515.365 193.274 504.839 193.903 494.527C195.465 468.878 198.243 443.275 200.709 417.699C203.266 391.181 205.857 364.668 208.087 338.12C209.554 320.62 210.834 303.104 211.871 285.577C205.873 321.827 200.095 358.127 192.337 394.05C190.157 404.137 187.821 414.19 185.283 424.194C183.054 432.978 180.478 441.675 178.283 450.467C174.64 465.061 171.747 479.922 166.347 494.009C160.997 507.955 153.113 520.389 141.055 529.44C127.077 539.935 110.02 545.432 93.1616 549.249C83.627 551.409 73.9668 553.268 64.3293 554.937C55.2978 556.499 46.171 557.722 37.0138 558.16C29.5637 558.514 21.0314 558.758 13.9053 555.916C15.1628 558.819 19.5909 561.34 28.2833 563.363C61.4636 571.081 126.632 560.864 170.059 547.806C169.026 548.815 167.994 549.809 166.911 550.747Z" fill="white"/>
<path d="M304.8 559.939C309.091 554.19 312.349 547.733 314.415 540.754C316.37 534.153 317.174 527.402 317.715 520.557C318.439 511.407 318.896 502.234 319.159 493.057C320.032 462.661 318.793 432.281 317.867 401.901C316.13 418.624 315.406 435.466 313.79 452.193C311.751 473.24 308.756 494.74 300.597 514.401C296.847 523.441 291.992 532.004 285.602 539.452C278.186 548.091 269.204 554.602 259.044 559.691C248.557 564.944 237.449 568.811 226.432 572.773C218.517 575.618 210.632 578.513 202.668 581.18C209.482 580.079 216.265 578.761 222.998 577.348C235.559 574.708 248.054 571.923 260.695 569.676C275.511 567.036 290.38 564.319 304.8 559.939Z" fill="white"/>
<path d="M359.717 531.924C357.648 515.757 357.343 499.491 357.332 483.213C356.958 486.059 356.574 488.901 356.128 491.735C352.591 514.138 346.494 537.162 333.069 555.824C326.655 564.742 318.645 572.411 309.286 578.19C305.143 580.746 300.788 582.898 296.291 584.704C312.811 585.919 329.803 580.662 344.547 573.824C348.651 571.919 352.69 569.82 356.661 567.58C356.726 567.687 356.775 567.794 356.84 567.9C361.493 575.401 368.414 581.26 375.966 585.698C377.365 586.521 378.813 587.245 380.254 587.987C367.712 572.319 362.252 551.695 359.717 531.924Z" fill="white"/>
<path d="M514.545 572.586C515.387 572.994 516.214 573.428 517.06 573.82C520.398 575.367 523.851 576.833 527.383 578.167C521.541 573.222 516.366 567.42 512.003 560.937C501.756 545.699 495.544 528.046 490.331 510.565C483.407 487.343 477.626 463.877 474.025 439.893C469.879 412.27 467.912 384.393 466.022 356.546C464.513 334.345 463.019 312.125 460.481 290.015C459.243 314.075 457.604 338.112 456.472 362.18C455.219 388.858 454.601 415.604 455.969 442.292C457.33 468.848 460.569 495.396 467.562 521.09C470.9 533.357 475.019 545.341 480.918 556.628C484.916 564.278 490.518 570.982 494.835 578.452C496.935 582.087 498.985 585.999 499.843 590.14C500.658 594.067 499.789 598.166 497.945 601.698C497.339 602.856 496.6 603.869 495.799 604.81C502.186 603.899 508.546 602.044 513.26 597.816C518.778 592.863 518.275 585.222 516.496 578.67C515.939 576.613 515.273 574.59 514.545 572.586Z" fill="white"/>
<path d="M586.29 566.971C585.875 566.746 585.444 566.559 585.033 566.327C571.295 558.586 560.625 546.72 553.186 532.911C543.152 514.275 538.915 493.129 533.812 472.775C527.612 448.037 521.911 423.158 517.513 398.031C517.311 396.88 517.125 395.726 516.93 394.572C516.965 396.218 516.999 397.863 517.03 399.505C517.433 421.908 517.624 444.327 519.057 466.696C519.785 478.044 520.825 489.384 522.38 500.653C523.592 509.449 525.268 518.146 528.229 526.538C532.898 539.76 540.778 551.185 550.835 560.887C558.807 568.578 567.64 575.317 576.485 581.999C576.554 581.409 576.325 580.734 575.887 580.338C568.288 573.554 560.869 566.563 553.967 559.07C554.409 559.211 554.851 559.363 555.293 559.504C565.445 562.689 575.841 564.963 586.29 566.971Z" fill="white"/>
<path d="M709.1 560.933C704.237 557.645 699.15 554.594 694.699 550.747C693.617 549.813 692.58 548.815 691.559 547.806C696.921 549.417 702.61 550.987 708.532 552.48C695.499 544.088 683.518 534.187 674.01 521.825C665.348 510.565 658.855 497.868 653.691 484.672C647.483 468.798 642.655 452.292 638.814 435.698C630.747 400.861 627.393 365.167 624.79 329.572C622.534 298.75 620.781 267.848 616.925 237.174C614.951 267.68 613.293 298.216 612.813 328.787C612.31 360.679 613.08 392.625 616.109 424.388C618.571 450.178 621.406 476.726 631.924 500.687C640.045 519.178 652.373 535.189 667.387 548.617C681.323 561.082 697.039 571.375 713.063 580.982C716.702 579.755 720.166 578.125 723.253 575.824C723.889 575.352 723.897 574.43 723.459 573.809C719.686 568.479 714.45 564.552 709.1 560.933Z" fill="white"/>
<path d="M131.121 111.559C131.121 111.559 131.121 113.083 131.121 115.829C136.578 128.419 147.499 138.568 159.774 146.053C183.934 160.792 212.347 168.357 239.823 174.06C266.509 179.599 293.608 183.039 320.744 185.389C358.894 188.696 397.253 190.124 435.536 190.059C487.614 189.968 539.509 186.46 590.809 177.408C609.768 174.064 629.294 170.776 648.607 172.109C664.098 173.176 679.17 177.915 686.925 192.364C695.537 208.406 695.865 228.416 695.606 246.168C695.32 265.486 693.51 284.693 693.67 304.026C693.91 333.377 695.156 362.763 698.57 391.932C701.581 417.619 705.59 443.786 715.067 467.987C723.683 489.994 736.956 510.477 755.454 525.437C773.177 539.772 795.257 549.333 816.677 556.64C823.06 558.819 829.592 560.803 836.215 562.617C878.019 551.013 798.473 525.082 766.928 504.515C734.696 483.503 730.489 388.237 730.489 392.442C730.489 396.644 730.489 111.555 730.489 111.555H453.767L455.527 115.288C449.441 114.336 443.203 113.856 437.087 113.513C429.885 113.113 422.591 113.075 415.411 113.898C412.146 114.275 408.956 114.945 405.827 115.829L407.843 111.551H131.121V111.559Z" fill="white"/>
<path d="M431.725 161.291C597.745 161.291 732.33 139.025 732.33 111.559C732.33 84.0927 597.745 61.8269 431.725 61.8269C265.706 61.8269 131.121 84.0927 131.121 111.559C131.121 139.025 265.706 161.291 431.725 161.291Z" fill="#EEE1B3"/>
<path d="M621.616 111.559C621.616 129.444 533.991 143.939 425.895 143.939C317.802 143.939 230.178 129.44 230.178 111.559C230.178 93.6774 317.802 79.1787 425.895 79.1787C533.987 79.1787 621.616 93.6774 621.616 111.559Z" fill="#EEE1B3"/>
<path d="M2095.3 212.956C2092.67 210.491 2089.79 208.194 2086.67 206.332C2070.43 216.88 2056.46 231.005 2044.31 245.911C2027.06 267.077 2012.9 290.741 2000.77 315.159C1995.16 326.458 1990 337.974 1985.32 349.688C1980.24 362.411 1975.49 375.233 1971.98 388.49C1964.88 415.29 1962.05 443.753 1967.33 471.147C1971.68 493.737 1981.73 514.433 1996.43 531.751C1997.66 532.368 1998.97 532.818 2000.37 532.959C2012.23 534.166 2012.16 515.908 2012.7 508.22C2013.33 499.295 2015.07 490.366 2016.82 481.6C2018.83 471.528 2021.13 461.502 2023.42 451.487C2032.14 413.48 2044.39 376.3 2060.2 340.644C2068.06 322.915 2076.96 305.67 2085.62 288.322C2094.01 271.488 2102.79 254.787 2113.8 239.481C2114.08 239.096 2114.37 238.727 2114.65 238.346C2109.31 229.085 2103.05 220.232 2095.3 212.956Z" fill="white"/>
<path d="M2062.11 281.842C2054.28 293.125 2047.04 304.816 2040.51 316.892C2037.33 322.77 2034.1 328.625 2032.01 334.979C2030.24 340.373 2028.28 345.836 2024.61 350.259C2023.63 351.432 2022.04 350.339 2021.9 349.139C2019.74 329.947 2015.67 311.014 2013.18 291.876C2008.82 299.525 2004.67 307.296 2000.77 315.163C1995.16 326.461 1990 337.977 1985.32 349.691C1980.24 362.415 1975.49 375.237 1971.97 388.494C1964.87 415.293 1962.05 443.757 1967.33 471.151C1971.68 493.741 1981.72 514.437 1996.42 531.755C1997.66 532.372 1998.97 532.821 2000.37 532.962C2012.23 534.17 2012.15 515.911 2012.69 508.224C2013.32 499.299 2015.06 490.369 2016.82 481.604C2018.83 471.532 2021.13 461.505 2023.42 451.49C2032.13 413.484 2044.39 376.304 2060.19 340.648C2068.05 322.919 2076.96 305.673 2085.61 288.325C2094.01 271.492 2102.79 254.791 2113.8 239.485C2114.07 239.1 2114.37 238.731 2114.65 238.35C2112.58 234.761 2110.32 231.276 2107.95 227.881C2091.21 244.548 2075.56 262.459 2062.11 281.842Z" fill="white"/>
<path d="M2049.92 576.523C2017.69 555.51 2013.49 460.244 2013.49 464.45C2013.49 468.652 2013.49 183.563 2013.49 183.563H1736.76L1738.52 187.296C1732.44 186.344 1726.2 185.864 1720.08 185.521C1712.88 185.121 1705.59 185.083 1698.41 185.905C1695.14 186.283 1691.95 186.953 1688.82 187.837L1690.84 183.559H1414.12C1414.12 183.559 1414.12 468.648 1414.12 464.446C1414.12 460.244 1409.92 555.507 1377.68 576.519C1345.45 597.532 1263.08 624.152 1311.28 635.36C1344.46 643.077 1409.62 632.861 1453.05 619.802C1452.03 620.811 1450.99 621.809 1449.91 622.743C1445.46 626.59 1440.37 629.642 1435.51 632.929C1430.16 636.548 1424.92 640.479 1421.15 645.797C1420.71 646.418 1420.72 647.336 1421.36 647.813C1432.01 655.748 1446.84 656.395 1459.59 655.923C1475.22 655.344 1490.72 652.548 1506 649.34C1518.56 646.7 1531.05 643.916 1543.69 641.668C1559.03 638.94 1574.43 636.167 1589.32 631.508C1589.76 631.371 1590.2 631.219 1590.65 631.074C1583.75 638.563 1576.33 645.557 1568.73 652.342C1567.93 653.054 1567.71 654.727 1569.01 655.058C1588.6 660.075 1609.72 654.09 1627.55 645.82C1631.65 643.916 1635.69 641.817 1639.66 639.577C1639.73 639.683 1639.78 639.79 1639.84 639.897C1644.5 647.397 1651.42 653.256 1658.97 657.694C1675.28 667.275 1694.58 671.16 1713.13 673.576C1721.35 674.646 1729.62 675.339 1737.86 676.177C1748.48 677.256 1759.19 678.143 1769.87 677.621C1778.79 677.183 1789.31 676.056 1796.26 669.82C1801.78 664.867 1801.28 657.226 1799.5 650.673C1798.94 648.616 1798.27 646.594 1797.54 644.59C1798.39 644.997 1799.21 645.432 1800.06 645.824C1817.89 654.094 1839.01 660.079 1858.6 655.062C1859.9 654.73 1859.68 653.058 1858.88 652.346C1851.28 645.561 1843.86 638.571 1836.96 631.078C1837.41 631.219 1837.85 631.371 1838.29 631.512C1853.18 636.171 1868.58 638.948 1883.92 641.672C1896.56 643.919 1909.05 646.704 1921.61 649.344C1936.89 652.552 1952.39 655.348 1968.02 655.927C1980.77 656.399 1995.6 655.751 2006.25 647.816C2006.89 647.344 2006.9 646.422 2006.46 645.801C2002.69 640.483 1997.45 636.552 1992.1 632.933C1987.24 629.645 1982.15 626.594 1977.7 622.747C1976.62 621.813 1975.58 620.815 1974.56 619.806C2017.99 632.864 2083.15 643.081 2116.33 635.363C2164.52 624.152 2082.16 597.536 2049.92 576.523Z" fill="white"/>
<path d="M1328.56 612.514C1336.78 609.459 1344.89 606.13 1352.9 602.56C1360.09 599.361 1367.37 596.176 1374.08 592.031C1386.52 584.348 1396.67 573.67 1403.78 560.908C1412.1 545.991 1417.1 529.126 1420.32 512.433C1423.73 494.781 1425.08 476.815 1426.16 458.892C1427.29 440.009 1427.98 421.114 1428.29 402.197C1428.93 363.177 1428.15 324.149 1426.92 285.148C1425.84 251.279 1424.44 217.425 1423.31 183.559H1414.13C1414.13 183.559 1414.13 468.648 1414.13 464.446C1414.13 460.244 1409.93 555.507 1377.69 576.519C1354.71 591.498 1306.27 609.326 1297.8 622.388C1308.21 619.642 1318.47 616.267 1328.56 612.514Z" fill="white"/>
<path d="M1505.09 412.425C1504.47 417.408 1503.9 422.398 1503.42 427.396C1500.51 457.376 1499.45 487.676 1500.35 517.782C1500.79 532.482 1501.95 547.149 1502.45 561.845C1502.8 572.142 1502.03 582.809 1503.59 593.067C1506.43 579.86 1508.33 566.459 1509.54 553.008C1512.13 524.387 1512.05 495.584 1511.23 466.884C1510.71 448.576 1507.68 430.523 1505.09 412.425Z" fill="white"/>
<path d="M1599.3 334.88C1597.11 360.663 1596.43 386.487 1595.62 412.337C1594.94 433.716 1594.39 456.073 1600.27 476.865C1603.28 466.404 1604.82 455.544 1605.57 444.698C1607.17 421.484 1604.74 398.494 1602.84 375.386C1601.72 361.885 1600.64 348.37 1599.3 334.88Z" fill="white"/>
<path d="M1821.71 370.117C1821.48 388.25 1822.15 406.375 1822.71 424.512C1823.28 442.839 1823.97 461.623 1828.33 479.535C1828.29 471.692 1828.36 463.848 1828.42 456.008C1828.58 435.262 1828.37 414.436 1825.47 393.862C1824.35 385.93 1823 378.026 1821.71 370.117Z" fill="white"/>
<path d="M1693.84 561.495C1693.25 533.286 1690.04 505.337 1686.52 477.368C1684.99 465.235 1683.39 453.113 1681.8 440.992C1681.32 452.473 1681.05 463.962 1681.31 475.448C1681.64 489.996 1682.23 504.552 1682.73 519.096C1683.64 545.846 1684.99 573.354 1692.83 599.128C1694.23 593.871 1694.27 588.252 1694.16 582.854C1694.02 575.735 1693.99 568.615 1693.84 561.495Z" fill="white"/>
<path d="M1449.91 622.747C1445.46 626.594 1440.37 629.645 1435.51 632.933C1430.89 636.06 1426.41 639.477 1422.83 643.763C1433.93 636.689 1445.19 629.836 1454.95 620.933C1462.16 614.351 1468.65 606.457 1471.99 597.17C1475.51 587.365 1476.27 576.839 1476.9 566.527C1478.47 540.878 1481.24 515.275 1483.71 489.699C1486.27 463.181 1488.86 436.668 1491.09 410.12C1492.55 392.62 1493.83 375.104 1494.87 357.577C1488.87 393.827 1483.1 430.127 1475.34 466.05C1473.16 476.137 1470.82 486.19 1468.28 496.194C1466.05 504.978 1463.48 513.675 1461.28 522.467C1457.64 537.061 1454.75 551.922 1449.35 566.009C1444 579.955 1436.11 592.389 1424.06 601.44C1410.08 611.935 1393.02 617.432 1376.16 621.249C1366.63 623.409 1356.97 625.268 1347.33 626.937C1338.3 628.499 1329.17 629.722 1320.01 630.16C1312.56 630.514 1304.03 630.758 1296.91 627.916C1298.16 630.819 1302.59 633.34 1311.28 635.363C1344.46 643.081 1409.63 632.864 1453.06 619.806C1452.03 620.815 1450.99 621.809 1449.91 622.747Z" fill="white"/>
<path d="M1587.8 631.939C1592.09 626.19 1595.35 619.733 1597.41 612.754C1599.37 606.153 1600.17 599.402 1600.72 592.557C1601.44 583.407 1601.9 574.234 1602.16 565.057C1603.03 534.661 1601.79 504.281 1600.87 473.901C1599.13 490.624 1598.41 507.466 1596.79 524.193C1594.75 545.24 1591.76 566.74 1583.6 586.401C1579.85 595.441 1574.99 604.004 1568.6 611.452C1561.19 620.091 1552.2 626.602 1542.04 631.691C1531.56 636.944 1520.45 640.811 1509.43 644.773C1501.52 647.618 1493.63 650.513 1485.67 653.18C1492.48 652.079 1499.26 650.761 1506 649.348C1518.56 646.708 1531.05 643.923 1543.69 641.676C1558.51 639.036 1573.38 636.319 1587.8 631.939Z" fill="white"/>
<path d="M1642.72 603.924C1640.65 587.757 1640.34 571.491 1640.33 555.213C1639.96 558.059 1639.57 560.901 1639.13 563.735C1635.59 586.138 1629.49 609.162 1616.07 627.824C1609.65 636.742 1601.64 644.411 1592.29 650.19C1588.14 652.746 1583.79 654.898 1579.29 656.704C1595.81 657.919 1612.8 652.662 1627.55 645.824C1631.65 643.919 1635.69 641.82 1639.66 639.58C1639.73 639.687 1639.78 639.794 1639.84 639.9C1644.49 647.401 1651.41 653.26 1658.97 657.698C1660.36 658.521 1661.81 659.245 1663.25 659.987C1650.71 644.319 1645.25 623.695 1642.72 603.924Z" fill="white"/>
<path d="M1797.54 644.586C1798.39 644.994 1799.21 645.428 1800.06 645.82C1803.4 647.367 1806.85 648.833 1810.38 650.167C1804.54 645.222 1799.37 639.42 1795 632.937C1784.76 617.699 1778.54 600.046 1773.33 582.565C1766.41 559.343 1760.63 535.877 1757.03 511.893C1752.88 484.27 1750.91 456.393 1749.02 428.546C1747.51 406.345 1746.02 384.125 1743.48 362.015C1742.24 386.075 1740.6 410.112 1739.47 434.18C1738.22 460.858 1737.6 487.604 1738.97 514.292C1740.33 540.848 1743.57 567.396 1750.56 593.09C1753.9 605.357 1758.02 617.341 1763.92 628.628C1767.92 636.278 1773.52 642.982 1777.84 650.452C1779.94 654.087 1781.99 657.999 1782.84 662.14C1783.66 666.067 1782.79 670.166 1780.95 673.698C1780.34 674.856 1779.6 675.869 1778.8 676.81C1785.19 675.899 1791.55 674.044 1796.26 669.816C1801.78 664.863 1801.28 657.222 1799.5 650.67C1798.94 648.613 1798.27 646.59 1797.54 644.586Z" fill="white"/>
<path d="M1869.29 638.971C1868.87 638.746 1868.44 638.559 1868.03 638.327C1854.29 630.586 1843.62 618.72 1836.19 604.911C1826.15 586.275 1821.91 565.129 1816.81 544.775C1810.61 520.037 1804.91 495.158 1800.51 470.031C1800.31 468.88 1800.12 467.726 1799.93 466.572C1799.96 468.218 1800 469.863 1800.03 471.505C1800.43 493.908 1800.62 516.327 1802.06 538.696C1802.78 550.044 1803.83 561.384 1805.38 572.653C1806.59 581.449 1808.27 590.146 1811.23 598.538C1815.9 611.76 1823.78 623.185 1833.83 632.887C1841.81 640.578 1850.64 647.317 1859.49 653.999C1859.55 653.409 1859.33 652.734 1858.89 652.338C1851.29 645.554 1843.87 638.563 1836.97 631.07C1837.41 631.211 1837.85 631.363 1838.29 631.504C1848.45 634.689 1858.84 636.963 1869.29 638.971Z" fill="white"/>
<path d="M1992.1 632.933C1987.24 629.645 1982.15 626.594 1977.7 622.747C1976.62 621.813 1975.58 620.815 1974.56 619.806C1979.92 621.417 1985.61 622.987 1991.53 624.48C1978.5 616.088 1966.52 606.187 1957.01 593.825C1948.35 582.565 1941.85 569.868 1936.69 556.672C1930.48 540.798 1925.66 524.292 1921.81 507.698C1913.75 472.861 1910.39 437.167 1907.79 401.572C1905.53 370.75 1903.78 339.848 1899.92 309.174C1897.95 339.68 1896.29 370.216 1895.81 400.787C1895.31 432.679 1896.08 464.625 1899.11 496.388C1901.57 522.178 1904.41 548.726 1914.92 572.687C1923.04 591.178 1935.37 607.189 1950.39 620.617C1964.32 633.082 1980.04 643.375 1996.06 652.982C1999.7 651.755 2003.17 650.125 2006.25 647.824C2006.89 647.352 2006.9 646.43 2006.46 645.809C2002.69 640.479 1997.45 636.552 1992.1 632.933Z" fill="white"/>
<path d="M1414.12 183.559C1414.12 183.559 1414.12 185.083 1414.12 187.829C1419.58 200.419 1430.5 210.568 1442.77 218.053C1466.93 232.792 1495.35 240.357 1522.82 246.06C1549.51 251.599 1576.61 255.039 1603.74 257.389C1641.89 260.696 1680.25 262.124 1718.54 262.059C1770.61 261.968 1822.51 258.46 1873.81 249.408C1892.77 246.064 1912.29 242.776 1931.61 244.109C1947.1 245.176 1962.17 249.915 1969.92 264.364C1978.54 280.406 1978.86 300.416 1978.61 318.168C1978.32 337.486 1976.51 356.693 1976.67 376.026C1976.91 405.377 1978.16 434.763 1981.57 463.932C1984.58 489.619 1988.59 515.786 1998.07 539.987C2006.68 561.994 2019.96 582.477 2038.45 597.437C2056.18 611.772 2078.26 621.333 2099.68 628.64C2106.06 630.819 2112.59 632.803 2119.22 634.617C2161.02 623.013 2081.47 597.082 2049.93 576.515C2017.7 555.503 2013.49 460.237 2013.49 464.442C2013.49 468.644 2013.49 183.555 2013.49 183.555H1736.77L1738.53 187.288C1732.44 186.336 1726.2 185.856 1720.09 185.513C1712.88 185.113 1705.59 185.075 1698.41 185.898C1695.15 186.275 1691.96 186.945 1688.83 187.829L1690.84 183.551H1414.12V183.559Z" fill="white"/>
<path d="M1714.73 233.291C1880.74 233.291 2015.33 211.025 2015.33 183.559C2015.33 156.093 1880.74 133.827 1714.73 133.827C1548.71 133.827 1414.12 156.093 1414.12 183.559C1414.12 211.025 1548.71 233.291 1714.73 233.291Z" fill="#EEE1B3"/>
<path d="M1904.62 183.559C1904.62 201.444 1816.99 215.939 1708.9 215.939C1600.8 215.939 1513.18 201.44 1513.18 183.559C1513.18 165.677 1600.8 151.179 1708.9 151.179C1816.99 151.179 1904.62 165.677 1904.62 183.559Z" fill="#EEE1B3"/>
<path d="M1848.81 841.157C1844.22 836.853 1839.19 832.842 1833.74 829.589C1805.38 848.01 1780.98 872.677 1759.76 898.709C1729.63 935.67 1704.88 976.996 1683.71 1019.64C1673.91 1039.37 1664.89 1059.48 1656.72 1079.94C1647.85 1102.16 1639.55 1124.55 1633.42 1147.7C1621.01 1194.5 1616.08 1244.21 1625.3 1292.05C1632.9 1331.5 1650.44 1367.64 1676.12 1397.88C1678.28 1398.96 1680.57 1399.74 1683.01 1399.99C1703.73 1402.1 1703.59 1370.21 1704.54 1356.79C1705.64 1341.2 1708.68 1325.61 1711.74 1310.3C1715.25 1292.71 1719.27 1275.2 1723.27 1257.71C1738.49 1191.34 1759.9 1126.41 1787.51 1064.14C1801.23 1033.18 1816.79 1003.07 1831.9 972.771C1846.57 943.374 1861.91 914.209 1881.13 887.479C1881.62 886.807 1882.13 886.162 1882.62 885.497C1873.28 869.324 1862.35 853.864 1848.81 841.157Z" fill="white"/>
<path d="M1790.85 961.455C1777.18 981.16 1764.53 1001.58 1753.11 1022.67C1747.56 1032.93 1741.92 1043.16 1738.27 1054.25C1735.18 1063.67 1731.76 1073.21 1725.34 1080.94C1723.64 1082.98 1720.86 1081.07 1720.62 1078.98C1716.84 1045.46 1709.73 1012.4 1705.38 978.978C1697.76 992.337 1690.52 1005.91 1683.7 1019.65C1673.91 1039.38 1664.89 1059.49 1656.71 1079.94C1647.84 1102.16 1639.55 1124.56 1633.41 1147.71C1621 1194.51 1616.07 1244.22 1625.29 1292.05C1632.89 1331.5 1650.44 1367.65 1676.12 1397.89C1678.28 1398.97 1680.56 1399.75 1683 1400C1703.72 1402.11 1703.59 1370.22 1704.53 1356.8C1705.63 1341.21 1708.67 1325.62 1711.73 1310.31C1715.25 1292.72 1719.26 1275.21 1723.27 1257.72C1738.48 1191.35 1759.9 1126.42 1787.5 1064.15C1801.22 1033.19 1816.78 1003.07 1831.9 972.778C1846.57 943.38 1861.9 914.216 1881.12 887.486C1881.61 886.814 1882.12 886.169 1882.61 885.503C1879 879.237 1875.06 873.15 1870.91 867.222C1841.68 896.327 1814.34 927.607 1790.85 961.455Z" fill="white"/>
<path d="M1769.56 1476.07C1713.26 1439.37 1705.92 1273.01 1705.92 1280.35C1705.92 1287.69 1705.92 789.826 1705.92 789.826H1222.57L1225.65 796.346C1215.02 794.683 1204.12 793.845 1193.44 793.246C1180.86 792.547 1168.12 792.481 1155.58 793.918C1149.87 794.576 1144.3 795.747 1138.84 797.291L1142.36 789.82H659.024C659.024 789.82 659.024 1287.68 659.024 1280.35C659.024 1273.01 651.683 1439.37 595.378 1476.06C539.081 1512.76 395.215 1559.25 479.389 1578.82C537.344 1592.3 651.17 1574.45 727.024 1551.65C725.24 1553.41 723.429 1555.16 721.539 1556.78C713.764 1563.5 704.872 1568.83 696.385 1574.57C687.04 1580.89 677.895 1587.76 671.305 1597.05C670.54 1598.13 670.553 1599.73 671.664 1600.57C690.268 1614.42 716.174 1615.55 738.452 1614.73C765.749 1613.72 792.819 1608.83 819.504 1603.23C841.443 1598.62 863.268 1593.76 885.346 1589.83C912.137 1585.07 939.028 1580.23 965.04 1572.09C965.812 1571.85 966.585 1571.59 967.357 1571.33C955.302 1584.41 942.343 1596.63 929.071 1608.48C927.673 1609.72 927.293 1612.64 929.556 1613.22C963.782 1621.98 1000.67 1611.53 1031.81 1597.09C1038.98 1593.76 1046.04 1590.09 1052.97 1586.18C1053.09 1586.37 1053.17 1586.56 1053.29 1586.74C1061.41 1599.84 1073.5 1610.07 1086.69 1617.82C1115.19 1634.55 1148.9 1641.34 1181.3 1645.56C1195.65 1647.43 1210.1 1648.64 1224.5 1650.1C1243.03 1651.98 1261.74 1653.53 1280.39 1652.62C1295.98 1651.86 1314.36 1649.89 1326.5 1639C1336.14 1630.35 1335.26 1617 1332.15 1605.56C1331.18 1601.97 1330.01 1598.44 1328.74 1594.94C1330.21 1595.65 1331.65 1596.41 1333.13 1597.09C1364.28 1611.54 1401.16 1621.99 1435.39 1613.23C1437.65 1612.65 1437.27 1609.73 1435.88 1608.48C1422.6 1596.63 1409.64 1584.43 1397.59 1571.34C1398.36 1571.59 1399.13 1571.85 1399.91 1572.1C1425.92 1580.24 1452.81 1585.08 1479.6 1589.84C1501.68 1593.77 1523.5 1598.63 1545.44 1603.24C1572.12 1608.84 1599.2 1613.72 1626.49 1614.74C1648.77 1615.56 1674.68 1614.43 1693.28 1600.57C1694.39 1599.75 1694.41 1598.14 1693.64 1597.05C1687.05 1587.77 1677.91 1580.9 1668.56 1574.58C1660.07 1568.84 1651.18 1563.51 1643.41 1556.79C1641.52 1555.16 1639.71 1553.42 1637.92 1551.66C1713.78 1574.46 1827.6 1592.3 1885.56 1578.82C1969.72 1559.25 1825.86 1512.77 1769.56 1476.07Z" fill="white"/>
<path d="M509.581 1538.92C523.931 1533.59 538.109 1527.77 552.1 1521.54C564.654 1515.95 577.367 1510.39 589.082 1503.15C610.807 1489.73 628.539 1471.09 640.966 1448.8C655.497 1422.75 664.229 1393.3 669.86 1364.15C675.811 1333.32 678.167 1301.95 680.051 1270.65C682.035 1237.67 683.226 1204.67 683.772 1171.64C684.883 1103.49 683.532 1035.34 681.376 967.23C679.499 908.082 677.056 848.961 675.072 789.82H659.038C659.038 789.82 659.038 1287.68 659.038 1280.35C659.038 1273.01 651.696 1439.37 595.392 1476.06C555.255 1502.22 470.649 1533.35 455.846 1556.17C474.037 1551.37 491.962 1545.48 509.581 1538.92Z" fill="white"/>
<path d="M817.913 1189.5C816.841 1198.2 815.843 1206.91 814.998 1215.64C809.926 1268 808.069 1320.91 809.633 1373.49C810.398 1399.16 812.428 1424.77 813.3 1450.44C813.913 1468.42 812.568 1487.05 815.304 1504.96C820.256 1481.9 823.571 1458.49 825.694 1435C830.22 1385.02 830.08 1334.72 828.643 1284.6C827.731 1252.63 822.446 1221.1 817.913 1189.5Z" fill="white"/>
<path d="M982.466 1054.08C978.652 1099.1 977.461 1144.2 976.036 1189.34C974.858 1226.68 973.899 1265.72 984.163 1302.03C989.422 1283.76 992.104 1264.8 993.415 1245.86C996.224 1205.32 991.971 1165.17 988.65 1124.82C986.706 1101.24 984.802 1077.64 982.466 1054.08Z" fill="white"/>
<path d="M1370.95 1115.61C1370.54 1147.28 1371.71 1178.93 1372.7 1210.61C1373.69 1242.61 1374.89 1275.42 1382.51 1306.7C1382.43 1293 1382.57 1279.3 1382.67 1265.61C1382.94 1229.38 1382.57 1193.01 1377.51 1157.08C1375.56 1143.23 1373.2 1129.43 1370.95 1115.61Z" fill="white"/>
<path d="M1147.6 1449.83C1146.57 1400.56 1140.96 1351.75 1134.81 1302.91C1132.15 1281.72 1129.35 1260.55 1126.56 1239.39C1125.73 1259.44 1125.25 1279.5 1125.71 1299.56C1126.29 1324.96 1127.32 1350.38 1128.19 1375.78C1129.78 1422.5 1132.14 1470.53 1145.83 1515.55C1148.28 1506.37 1148.36 1496.55 1148.16 1487.13C1147.92 1474.69 1147.86 1462.26 1147.6 1449.83Z" fill="white"/>
<path d="M721.539 1556.79C713.764 1563.51 704.872 1568.84 696.385 1574.58C688.311 1580.04 680.49 1586.01 674.24 1593.49C693.629 1581.14 713.298 1569.17 730.331 1553.62C742.931 1542.13 754.274 1528.35 760.104 1512.13C766.255 1495 767.586 1476.62 768.684 1458.61C771.413 1413.82 776.265 1369.11 780.572 1324.44C785.038 1278.14 789.564 1231.83 793.458 1185.47C796.021 1154.91 798.257 1124.32 800.068 1093.71C789.591 1157.02 779.5 1220.41 765.948 1283.15C762.141 1300.76 758.061 1318.32 753.628 1335.79C749.734 1351.13 745.235 1366.32 741.401 1381.67C735.037 1407.16 729.985 1433.11 720.554 1457.71C711.208 1482.06 697.437 1503.78 676.377 1519.58C651.962 1537.91 622.169 1547.51 592.722 1554.18C576.069 1557.95 559.195 1561.2 542.362 1564.11C526.587 1566.84 510.646 1568.97 494.651 1569.74C481.638 1570.36 466.735 1570.78 454.288 1565.82C456.485 1570.89 464.219 1575.29 479.402 1578.82C537.357 1592.3 651.183 1574.46 727.037 1551.66C725.233 1553.42 723.429 1555.15 721.539 1556.79Z" fill="white"/>
<path d="M962.385 1572.84C969.879 1562.81 975.57 1551.53 979.178 1539.34C982.593 1527.81 983.997 1516.02 984.942 1504.07C986.207 1488.09 987.006 1472.07 987.465 1456.05C988.989 1402.96 986.826 1349.91 985.208 1296.86C982.173 1326.06 980.909 1355.47 978.086 1384.68C974.525 1421.44 969.294 1458.99 955.043 1493.32C948.493 1509.11 940.013 1524.06 928.851 1537.07C915.898 1552.15 900.21 1563.52 882.464 1572.41C864.147 1581.59 844.744 1588.34 825.501 1595.26C811.676 1600.23 797.905 1605.28 783.993 1609.94C795.895 1608.02 807.743 1605.71 819.504 1603.25C841.443 1598.64 863.268 1593.77 885.346 1589.85C911.226 1585.24 937.198 1580.49 962.385 1572.84Z" fill="white"/>
<path d="M1058.31 1523.92C1054.69 1495.69 1054.16 1467.28 1054.14 1438.86C1053.49 1443.82 1052.81 1448.79 1052.04 1453.74C1045.86 1492.86 1035.21 1533.07 1011.76 1565.66C1000.56 1581.23 986.566 1594.62 970.219 1604.72C962.984 1609.18 955.376 1612.94 947.521 1616.09C976.376 1618.21 1006.06 1609.03 1031.81 1597.09C1038.98 1593.77 1046.03 1590.1 1052.97 1586.19C1053.08 1586.38 1053.17 1586.56 1053.28 1586.75C1061.41 1599.85 1073.5 1610.08 1086.69 1617.83C1089.13 1619.27 1091.66 1620.53 1094.18 1621.83C1072.27 1594.46 1062.73 1558.45 1058.31 1523.92Z" fill="white"/>
<path d="M1328.74 1594.93C1330.21 1595.64 1331.65 1596.4 1333.13 1597.09C1338.96 1599.79 1344.99 1602.35 1351.16 1604.68C1340.96 1596.04 1331.92 1585.91 1324.3 1574.59C1306.4 1547.98 1295.55 1517.15 1286.45 1486.62C1274.35 1446.07 1264.25 1405.09 1257.96 1363.2C1250.72 1314.96 1247.29 1266.28 1243.99 1217.65C1241.35 1178.88 1238.74 1140.08 1234.31 1101.46C1232.14 1143.48 1229.28 1185.46 1227.31 1227.49C1225.12 1274.08 1224.04 1320.79 1226.43 1367.39C1228.8 1413.77 1234.46 1460.13 1246.67 1505C1252.51 1526.42 1259.7 1547.35 1270 1567.06C1276.99 1580.42 1286.77 1592.13 1294.31 1605.18C1297.98 1611.52 1301.56 1618.35 1303.06 1625.59C1304.48 1632.44 1302.97 1639.6 1299.74 1645.77C1298.69 1647.79 1297.39 1649.56 1296 1651.2C1307.15 1649.61 1318.26 1646.37 1326.5 1638.99C1336.13 1630.34 1335.25 1617 1332.15 1605.55C1331.17 1601.96 1330.01 1598.43 1328.74 1594.93Z" fill="white"/>
<path d="M1454.05 1585.12C1453.33 1584.73 1452.58 1584.41 1451.86 1584C1427.86 1570.48 1409.22 1549.76 1396.23 1525.64C1378.71 1493.1 1371.3 1456.17 1362.39 1420.63C1351.56 1377.43 1341.6 1333.98 1333.92 1290.1C1333.57 1288.09 1333.24 1286.07 1332.91 1284.06C1332.96 1286.93 1333.02 1289.81 1333.08 1292.67C1333.78 1331.8 1334.12 1370.95 1336.62 1410.01C1337.89 1429.83 1339.71 1449.63 1342.42 1469.31C1344.54 1484.67 1347.47 1499.86 1352.64 1514.51C1360.79 1537.61 1374.56 1557.56 1392.12 1574.5C1406.05 1587.93 1421.48 1599.7 1436.93 1611.37C1437.05 1610.34 1436.65 1609.16 1435.88 1608.47C1422.61 1596.62 1409.65 1584.41 1397.6 1571.33C1398.37 1571.57 1399.14 1571.84 1399.91 1572.09C1417.64 1577.65 1435.8 1581.62 1454.05 1585.12Z" fill="white"/>
<path d="M1668.56 1574.58C1660.07 1568.84 1651.18 1563.51 1643.41 1556.79C1641.52 1555.16 1639.71 1553.42 1637.92 1551.66C1647.29 1554.47 1657.23 1557.21 1667.57 1559.82C1644.81 1545.16 1623.88 1527.87 1607.27 1506.29C1592.14 1486.62 1580.8 1464.45 1571.78 1441.4C1560.94 1413.68 1552.5 1384.86 1545.8 1355.88C1531.7 1295.04 1525.85 1232.71 1521.3 1170.54C1517.36 1116.72 1514.3 1062.75 1507.56 1009.19C1504.11 1062.46 1501.22 1115.79 1500.38 1169.17C1499.5 1224.87 1500.85 1280.66 1506.14 1336.13C1510.44 1381.16 1515.39 1427.53 1533.76 1469.37C1547.95 1501.66 1569.48 1529.62 1595.7 1553.07C1620.04 1574.84 1647.49 1592.82 1675.48 1609.59C1681.84 1607.45 1687.89 1604.6 1693.28 1600.59C1694.39 1599.76 1694.41 1598.15 1693.64 1597.07C1687.05 1587.76 1677.91 1580.9 1668.56 1574.58Z" fill="white"/>
<path d="M659.024 789.82C659.024 789.82 659.024 792.481 659.024 797.277C668.556 819.264 687.632 836.986 709.072 850.058C751.272 875.797 800.9 889.009 848.891 898.968C895.504 908.641 942.835 914.648 990.234 918.753C1056.87 924.527 1123.87 927.022 1190.74 926.909C1281.7 926.749 1372.34 920.622 1461.95 904.816C1495.06 898.975 1529.17 893.233 1562.9 895.562C1589.96 897.425 1616.28 905.7 1629.83 930.933C1644.87 958.947 1645.44 993.893 1644.99 1024.89C1644.49 1058.63 1641.33 1092.17 1641.61 1125.93C1642.03 1177.19 1644.21 1228.51 1650.17 1279.45C1655.43 1324.31 1662.43 1370 1678.98 1412.26C1694.03 1450.7 1717.22 1486.47 1749.53 1512.59C1780.48 1537.63 1819.05 1554.32 1856.46 1567.08C1867.61 1570.89 1879.02 1574.35 1890.59 1577.52C1963.61 1557.26 1824.67 1511.97 1769.57 1476.06C1713.27 1439.36 1705.92 1272.99 1705.92 1280.34C1705.92 1287.68 1705.92 789.813 1705.92 789.813H1222.58L1225.65 796.333C1215.02 794.669 1204.13 793.831 1193.45 793.232C1180.87 792.534 1168.13 792.467 1155.59 793.904C1149.88 794.563 1144.31 795.734 1138.85 797.277L1142.37 789.806H659.024V789.82Z" fill="white"/>
<path d="M1184.08 876.669C1474.06 876.669 1709.14 837.785 1709.14 789.82C1709.14 741.854 1474.06 702.971 1184.08 702.971C894.1 702.971 659.024 741.854 659.024 789.82C659.024 837.785 894.1 876.669 1184.08 876.669Z" fill="#EEE1B3"/>
<path d="M1515.76 789.82C1515.76 821.054 1362.7 846.366 1173.9 846.366C985.095 846.366 832.044 821.047 832.044 789.82C832.044 758.593 985.095 733.273 1173.9 733.273C1362.7 733.273 1515.76 758.593 1515.76 789.82Z" fill="#EEE1B3"/>
</svg>
