<svg width="6754" height="545" viewBox="0 0 6754 545" fill="none" xmlns="http://www.w3.org/2000/svg">
<path d="M2364.05 93.2323L2394.05 71.3527L2424.05 93.2323L2412.61 57.8028L2443.15 35.8733H2405.56L2394.01 0.00390625L2382.51 35.9332L2344.92 35.8733L2375.41 57.8028L2364.05 93.2323Z" fill="white"/>
<path d="M2251.1 123.543L2281.1 101.673L2311.1 123.543L2299.75 88.1134L2330.23 66.2338H2292.64L2281.14 30.2344L2269.59 66.2338L2232 66.1738L2262.54 88.1134L2251.1 123.543Z" fill="white"/>
<path d="M2168.54 206.342L2198.54 184.462L2228.54 206.342L2217.16 170.912L2247.65 149.033H2210.11L2198.56 113.033L2187.07 149.033L2149.48 148.983L2179.96 170.912L2168.54 206.342Z" fill="white"/>
<path d="M2168.26 297.179L2198.26 319.109L2186.88 283.689L2217.37 261.75H2179.77L2168.28 225.83L2156.73 261.829L2119.08 261.77L2149.68 283.709L2138.22 319.109L2168.26 297.179Z" fill="white"/>
<path d="M2247.66 374.857H2210.07L2198.52 338.857L2187.03 374.857H2149.44L2179.92 396.786L2168.48 432.216L2198.48 410.286L2228.48 432.216L2217.16 396.786L2247.66 374.857Z" fill="white"/>
<path d="M2292.81 457.586L2281.31 421.717L2269.82 457.646L2232.17 457.586L2262.71 479.526L2251.33 514.945L2281.33 493.076L2311.33 514.945L2299.94 479.526L2330.44 457.586H2292.81Z" fill="white"/>
<path d="M2405.59 487.636L2394.04 451.637L2382.54 487.636L2344.95 487.576L2375.44 509.516L2364.05 544.935L2394.05 523.065L2424.05 544.995L2412.61 509.516L2443.15 487.636H2405.59Z" fill="white"/>
<path d="M2518.31 457.586L2506.82 421.717L2495.32 457.646L2457.73 457.586L2488.21 479.526L2476.83 514.945L2506.83 493.016L2536.83 514.945L2525.39 479.526L2555.93 457.586H2518.31Z" fill="white"/>
<path d="M2601.09 374.857L2589.59 338.928L2578.04 374.857H2540.45L2570.99 396.787L2559.55 432.216L2589.55 410.277L2619.55 432.216L2608.15 396.787L2638.64 374.857H2601.09Z" fill="white"/>
<path d="M2668.66 261.47H2631.07L2619.52 225.471L2608.03 261.47H2570.45L2600.98 283.4L2589.55 318.879L2619.54 296.88L2649.54 318.879L2638.15 283.35L2668.66 261.47Z" fill="white"/>
<path d="M2570.99 170.58L2559.55 206.01L2589.55 184.13L2619.55 206.01L2608.15 170.58L2638.64 148.701H2601.05L2589.55 112.781L2578 148.701H2540.45L2570.99 170.58Z" fill="white"/>
<path d="M2477.16 123.603L2507.15 101.673L2537.15 123.603L2525.71 88.1832L2556.19 66.2436H2518.6L2507.15 30.3242L2495.66 66.3236L2458.02 66.2136L2488.56 88.2132L2477.16 123.603Z" fill="white"/>
<path d="M2836.39 98.5527C2842.28 109.333 2849.08 122.646 2856.78 138.492C2864.48 154.339 2872.5 171.488 2880.85 189.941C2889.2 208.401 2897.47 227.264 2905.66 246.53C2913.85 265.797 2921.54 283.926 2928.75 300.919C2935.96 283.94 2943.66 265.81 2951.85 246.53C2960.04 227.251 2968.3 208.388 2976.65 189.941C2985.01 171.495 2993.03 154.345 3000.73 138.492C3008.42 122.639 3015.22 109.326 3021.12 98.5527H3090.7C3093.96 121.092 3096.98 146.329 3099.76 174.262C3102.54 202.194 3104.99 231.267 3107.11 261.48C3109.23 291.699 3111.19 321.996 3112.99 352.368C3114.79 382.741 3116.34 411.324 3117.65 438.117H3043.15C3042.17 405.131 3040.86 369.198 3039.23 330.319C3037.59 291.439 3035.14 252.24 3031.88 212.721C3025.98 226.441 3019.42 241.63 3012.22 258.29C3005.01 274.95 2997.88 291.616 2990.83 308.289C2983.79 324.956 2976.99 340.882 2970.44 356.068C2963.89 371.255 2958.31 384.255 2953.72 395.068H2900.31C2895.72 384.288 2890.15 371.288 2883.6 356.068C2877.05 340.849 2870.25 324.922 2863.2 308.289C2856.15 291.623 2849.03 274.956 2841.82 258.29C2834.61 241.624 2828.06 226.434 2822.15 212.721C2818.88 252.253 2816.43 291.453 2814.8 330.319C2813.17 369.185 2811.86 405.118 2810.88 438.117H2736.4C2737.7 411.337 2739.25 382.755 2741.05 352.368C2742.85 321.982 2744.81 291.686 2746.93 261.48C2749.06 231.274 2751.51 202.201 2754.28 174.262C2757.06 146.322 2760.08 121.086 2763.35 98.5527H2836.39Z" fill="white"/>
<path d="M3405.22 438.107C3401.44 426.307 3397.38 414.191 3393.04 401.758C3388.7 389.325 3384.37 376.941 3380.04 364.608H3247.42C3243.13 377.001 3238.83 389.418 3234.53 401.858C3230.23 414.297 3226.23 426.381 3222.53 438.107H3143.14C3155.92 401.528 3168.05 367.718 3179.51 336.679C3190.98 305.639 3202.2 276.403 3213.17 248.97C3224.15 221.531 3234.97 195.481 3245.61 170.822C3256.26 146.162 3267.32 122.069 3278.8 98.543H3351.26C3362.41 122.063 3373.41 146.155 3384.26 170.822C3395.11 195.488 3406.03 221.537 3417 248.97C3427.99 276.41 3439.23 305.646 3450.72 336.679C3462.21 367.712 3474.35 401.521 3487.14 438.107H3405.22ZM3313.39 175.472C3311.68 180.398 3309.18 187.108 3305.9 195.601C3302.62 204.094 3298.88 213.901 3294.68 225.021C3290.5 236.147 3285.81 248.397 3280.61 261.77C3275.42 275.143 3270.15 289.17 3264.81 303.849H3361.91C3356.71 289.13 3351.68 275.06 3346.82 261.64C3341.96 248.22 3337.33 235.947 3332.93 224.821C3328.55 213.701 3324.71 203.901 3321.4 195.421C3318.09 186.941 3315.42 180.295 3313.39 175.482V175.472Z" fill="white"/>
<path d="M3819.79 268.11C3819.79 297.509 3815.22 323.152 3806.07 345.039C3796.93 366.925 3783.95 385.048 3767.13 399.408C3750.31 413.787 3729.81 424.567 3705.64 431.747C3681.46 438.927 3654.35 442.52 3624.3 442.527C3610.58 442.527 3594.58 441.957 3576.3 440.817C3558.19 439.697 3540.18 437.321 3522.4 433.707V102.963C3540.62 99.6336 3559.03 97.4262 3577.53 96.3528C3596.63 95.2128 3613.04 94.6395 3626.77 94.6328C3655.83 94.6328 3682.21 97.8993 3705.91 104.433C3729.6 110.966 3749.93 121.256 3766.9 135.302C3783.88 149.348 3796.95 167.315 3806.1 189.201C3815.26 211.087 3819.82 237.39 3819.79 268.11ZM3598.8 375.908C3602.39 376.235 3606.55 376.481 3611.29 376.648C3616.03 376.818 3621.66 376.888 3628.2 376.888C3666.42 376.888 3694.75 367.251 3713.2 347.978C3731.64 328.705 3740.87 302.083 3740.88 268.11C3740.88 232.51 3732.07 205.561 3714.43 187.261C3696.79 168.962 3668.86 159.815 3630.64 159.822C3625.4 159.822 3620.01 159.905 3614.47 160.072C3609.22 160.214 3603.99 160.621 3598.79 161.292L3598.8 375.908Z" fill="white"/>
<path d="M3875.13 438.107V98.5527H4104.45V162.742H3951.6V229.381H4087.33V292.109H3951.6V373.938H4115.75V438.107H3875.13Z" fill="white"/>
<path d="M4273.03 98.5527H4349.47V438.107H4273.03V98.5527Z" fill="white"/>
<path d="M4647.38 438.107C4625.49 399.241 4601.81 360.858 4576.33 322.959C4551.3 285.661 4524.14 249.832 4494.99 215.651V438.107H4419.54V98.5527H4481.76C4492.54 109.333 4504.47 122.562 4517.53 138.242C4530.6 153.922 4543.91 170.665 4557.46 188.471C4571.01 206.284 4584.49 224.741 4597.89 243.84C4611.3 262.94 4623.87 281.313 4635.62 298.959V98.5527H4711.62V438.107H4647.38Z" fill="white"/>
<path d="M4890.89 438.107V98.5527H5120.21V162.742H4967.33V229.381H5103.11V292.109H4967.33V373.938H5131.48V438.107H4890.89Z" fill="white"/>
<path d="M5312.28 444.977C5288.43 444.977 5267.85 441.644 5250.54 434.977C5233.23 428.31 5218.94 419.001 5207.67 407.047C5196.25 394.886 5187.71 380.319 5182.67 364.418C5177.29 347.925 5174.59 329.712 5174.58 309.779V98.5527H5251.02V303.369C5251.02 317.089 5252.57 328.756 5255.68 338.369C5258.79 347.982 5263.03 355.822 5268.42 361.888C5273.7 367.87 5280.46 372.354 5288.02 374.888C5296.16 377.578 5304.69 378.903 5313.26 378.808C5331.87 378.808 5346.98 373.091 5358.58 361.658C5370.18 350.225 5375.98 330.789 5375.97 303.349V98.5527H5452.41V309.739C5452.41 329.665 5449.63 347.959 5444.08 364.618C5438.91 380.642 5430.2 395.298 5418.6 407.497C5407.17 419.424 5392.63 428.65 5374.99 435.177C5357.35 441.704 5336.45 444.97 5312.28 444.977Z" fill="white"/>
<path d="M5617.1 94.6328C5668.06 94.6328 5707.1 103.699 5734.21 121.832C5761.32 139.965 5774.88 168.138 5774.88 206.351C5774.88 230.197 5769.41 249.554 5758.46 264.42C5747.52 279.286 5731.76 290.953 5711.18 299.419C5718.04 307.919 5725.23 317.639 5732.74 328.579C5740.25 339.519 5747.68 350.952 5755.03 362.878C5762.36 374.811 5769.47 387.224 5776.35 400.118C5783.23 413.011 5789.6 425.677 5795.46 438.117H5710.01C5703.77 427.017 5697.44 415.747 5691.01 404.307C5684.59 392.868 5678.03 381.761 5671.35 370.988C5664.63 360.208 5657.98 350.002 5651.42 340.369C5644.86 330.735 5638.31 321.982 5631.75 314.109H5594.02V438.107H5517.59V103.453C5534.66 100.135 5551.92 97.8441 5569.27 96.5927C5587.07 95.2928 5603.02 94.6395 5617.1 94.6328ZM5621.51 159.802C5615.95 159.802 5610.95 159.965 5606.51 160.292C5602.07 160.618 5597.91 160.952 5594.02 161.292V253.41H5615.58C5644.32 253.41 5664.9 249.817 5677.32 242.63C5689.74 235.444 5695.95 223.194 5695.94 205.881C5695.94 189.215 5689.65 177.375 5677.07 170.361C5664.49 163.348 5645.96 159.828 5621.46 159.802H5621.51Z" fill="white"/>
<path d="M6150.66 268.111C6150.66 297.191 6146.32 322.753 6137.66 344.8C6128.99 366.846 6117.15 385.282 6102.15 400.109C6086.93 415.09 6068.62 426.546 6048.49 433.668C6027.74 441.175 6005.45 444.931 5981.61 444.938C5959.23 445.078 5937 441.263 5915.95 433.668C5895.82 426.427 5877.47 414.988 5862.1 400.109C5846.77 385.249 5834.68 366.793 5825.84 344.74C5817 322.687 5812.58 297.144 5812.56 268.111C5812.56 239.038 5817.14 213.479 5826.28 191.432C5835.43 169.386 5847.76 150.846 5863.28 135.813C5878.67 120.873 5897.03 109.352 5917.18 102.004C5937.82 94.4526 5959.64 90.6364 5981.62 90.7341C6004 90.5955 6026.23 94.4107 6047.28 102.004C6067.46 109.277 6085.84 120.808 6101.18 135.813C6116.51 150.84 6128.6 169.379 6137.44 191.432C6146.28 213.485 6150.68 239.045 6150.66 268.111ZM5891.45 268.111C5891.45 284.777 5893.49 299.804 5897.57 313.19C5901.65 326.577 5907.53 338.093 5915.21 347.74C5922.74 357.264 5932.39 364.897 5943.39 370.029C5954.49 375.263 5967.23 377.876 5981.61 377.869C5995.65 377.869 6008.32 375.256 6019.61 370.029C6030.71 364.943 6040.44 357.306 6048.03 347.74C6055.69 338.113 6061.58 326.597 6065.67 313.19C6069.76 299.784 6071.8 284.757 6071.8 268.111C6071.8 251.445 6069.76 236.338 6065.67 222.792C6061.58 209.245 6055.7 197.649 6048.03 188.002C6040.44 178.439 6030.7 170.799 6019.61 165.703C6008.34 160.483 5995.67 157.87 5981.61 157.863C5967.23 157.863 5954.49 160.56 5943.39 165.953C5932.41 171.237 5922.78 178.944 5915.21 188.492C5907.53 198.132 5901.65 209.729 5897.57 223.282C5893.49 236.835 5891.45 251.778 5891.45 268.111Z" fill="white"/>
<path d="M6307.93 94.6328C6358.6 94.6328 6397.47 103.536 6424.55 121.342C6451.63 139.149 6465.19 168.301 6465.22 208.801C6465.22 249.64 6451.5 279.123 6424.06 297.249C6396.62 315.376 6357.42 324.439 6306.46 324.439H6282.46V438.107H6206.02V103.453C6223.51 100.084 6241.18 97.7928 6258.94 96.5927C6277.56 95.2928 6293.89 94.6395 6307.93 94.6328ZM6312.83 159.802C6307.29 159.802 6301.82 159.965 6296.42 160.292C6291.03 160.618 6286.36 160.952 6282.42 161.292V259.29H6306.42C6332.88 259.29 6352.81 255.697 6366.2 248.51C6379.59 241.324 6386.29 227.93 6386.29 208.331C6386.29 198.858 6384.58 191.018 6381.15 184.811C6377.7 178.588 6372.62 173.424 6366.45 169.872C6360.08 166.125 6352.32 163.512 6343.17 162.032C6333.13 160.488 6322.99 159.742 6312.83 159.802Z" fill="white"/>
<path d="M6513.24 438.107V98.5527H6742.55V162.742H6589.68V229.381H6725.4V292.109H6589.68V373.938H6753.82V438.107H6513.24Z" fill="white"/>
<path d="M225.715 367.397V432.656H0.199219V95.1719H76.1979V367.397H225.715Z" fill="white"/>
<path d="M277.824 62.543V98.5424C277.716 115.646 276.497 132.725 274.174 149.671C271.734 168.178 269.068 186.844 266.174 205.671H217.965C214.385 186.844 211.542 168.178 209.435 149.671C207.385 132.56 206.303 115.346 206.195 98.1123V62.5629L277.824 62.543Z" fill="white"/>
<path d="M536.872 432.657C533.112 420.924 529.072 408.881 524.752 396.528C520.432 384.175 516.128 371.868 511.842 359.608H380.034C375.774 371.915 371.504 384.248 367.225 396.608C362.945 408.968 358.945 420.967 355.225 432.607H276.336C289.002 396.248 301.049 362.645 312.475 331.799C323.902 300.953 335.055 271.897 345.935 244.63C356.841 217.351 367.588 191.458 378.174 166.952C388.761 142.446 399.761 118.503 411.174 95.123H483.172C494.252 118.496 505.179 142.439 515.952 166.952C526.725 191.465 537.571 217.358 548.491 244.63C559.411 271.897 570.581 300.953 582.001 331.799C593.421 362.645 605.487 396.248 618.2 432.607L536.872 432.657ZM445.593 171.662C443.906 176.562 441.426 183.228 438.153 191.661C434.88 200.095 431.163 209.841 427.004 220.901C422.83 231.961 418.164 244.137 413.004 257.43C407.844 270.723 402.607 284.663 397.294 299.25H493.802C488.629 284.623 483.629 270.64 478.802 257.3C473.976 243.96 469.376 231.764 465.003 220.711C460.643 209.651 456.819 199.908 453.533 191.481C450.246 183.055 447.6 176.438 445.593 171.632V171.662Z" fill="white"/>
<path d="M724.478 432.656C711.038 404.31 697.788 374.89 684.728 344.397C671.669 313.905 659.255 283.742 647.489 253.909C635.716 224.083 624.906 195.52 615.06 168.22C605.213 140.921 596.693 116.588 589.5 95.2217H673.269C679.582 114.761 686.605 135.794 694.338 158.321C702.071 180.847 709.948 203.3 717.968 225.679C725.967 248.059 733.654 269.495 741.027 289.988C748.4 310.481 755.44 328.184 762.147 343.097C768.473 328.291 775.4 310.625 782.927 290.098C790.453 269.572 798.226 248.136 806.246 225.79C814.246 203.417 822.119 180.964 829.866 158.431C837.613 135.898 844.649 114.815 850.975 95.1816H931.854C924.294 116.701 915.594 141.078 905.754 168.31C895.914 195.543 885.155 224.093 873.475 253.959C861.789 283.838 849.456 314.035 836.476 344.547C823.496 375.06 810.316 404.433 796.936 432.666L724.478 432.656Z" fill="white"/>
<path d="M968.863 432.656V95.1719H1196.78V158.961H1044.78V225.2H1179.68V287.529H1044.78V368.857H1207.98V432.656H968.863Z" fill="white"/>
<path d="M1484.1 432.656C1462.34 394.03 1438.8 355.881 1413.48 318.208C1388.6 281.136 1361.61 245.527 1332.64 211.56V432.656H1257.64V95.1719H1319.49C1330.21 105.885 1342.06 119.031 1355.04 134.611C1368.02 150.191 1381.25 166.831 1394.73 184.53C1408.2 202.23 1421.59 220.563 1434.91 239.529C1448.22 258.496 1460.72 276.759 1472.41 294.318V95.1719H1547.9V432.656H1484.1Z" fill="white"/>
<path d="M1619.47 95.1719H1695.47V432.656H1619.47V95.1719Z" fill="white"/>
<path d="M1865.89 91.2715C1916.55 91.2715 1955.35 100.271 1982.29 118.271C2009.22 136.271 2022.69 164.27 2022.71 202.27C2022.71 225.969 2017.27 245.205 2006.39 259.979C1995.51 274.752 1979.84 286.358 1959.39 294.798C1966.2 303.238 1973.34 312.904 1980.81 323.797C1988.27 334.691 1995.66 346.054 2002.97 357.887C2010.3 369.747 2017.36 382.08 2024.16 394.886C2030.95 407.693 2037.28 420.272 2043.16 432.626H1958.23C1952.03 421.599 1945.76 410.399 1939.41 399.026C1933.05 387.653 1926.54 376.613 1919.86 365.907C1913.19 355.194 1906.59 345.047 1900.06 335.467C1893.52 325.887 1887 317.204 1880.5 309.418H1843V432.626H1767V100.041C1783.97 96.7424 1801.13 94.4649 1818.38 93.2214C1836.09 91.9348 1851.93 91.2848 1865.89 91.2715ZM1870.28 156.04C1864.75 156.04 1859.81 156.21 1855.42 156.53C1851.03 156.85 1846.9 157.18 1843 157.53V249.109H1864.43C1892.99 249.109 1913.45 245.539 1925.79 238.399C1938.13 231.259 1944.3 219.083 1944.3 201.87C1944.3 185.31 1938.05 173.54 1925.55 166.56C1913.05 159.58 1894.62 156.074 1870.28 156.04Z" fill="white"/>
</svg>
